<svg width="17" height="18" viewBox="0 0 17 18" fill="none" xmlns="http://www.w3.org/2000/svg">
<path d="M16.625 2.34375V15.4062C16.625 15.901 16.4518 16.3216 16.1055 16.668C15.7591 17.0143 15.3385 17.1875 14.8438 17.1875H11.6895V10.6191H13.916L14.25 8.0957H11.6895V6.5C11.6895 6.10417 11.7637 5.80729 11.9121 5.60938C12.11 5.38672 12.444 5.27539 12.9141 5.27539H14.25V3.04883C13.7305 2.97461 13.0872 2.9375 12.3203 2.9375C11.3307 2.9375 10.5391 3.23438 9.94531 3.82812C9.3763 4.39714 9.0918 5.20117 9.0918 6.24023V8.0957H6.82812V10.6191H9.0918V17.1875H1.78125C1.28646 17.1875 0.865885 17.0143 0.519531 16.668C0.173177 16.3216 0 15.901 0 15.4062V2.34375C0 1.84896 0.173177 1.42839 0.519531 1.08203C0.865885 0.735677 1.28646 0.5625 1.78125 0.5625H14.8438C15.3385 0.5625 15.7591 0.735677 16.1055 1.08203C16.4518 1.42839 16.625 1.84896 16.625 2.34375Z" fill="#777777"/>
</svg>
