<svg width="17" height="18" viewBox="0 0 17 18" fill="none" xmlns="http://www.w3.org/2000/svg">
<path d="M6.82812 5.94336C6.82812 5.54753 6.97656 5.20117 7.27344 4.9043C7.57031 4.60742 7.91667 4.45898 8.3125 4.45898C8.70833 4.45898 9.05469 4.60742 9.35156 4.9043C9.64844 5.20117 9.79688 5.5599 9.79688 5.98047C9.79688 6.3763 9.64844 6.72266 9.35156 7.01953C9.05469 7.29167 8.70833 7.42773 8.3125 7.42773C7.91667 7.42773 7.57031 7.29167 7.27344 7.01953C6.97656 6.72266 6.82812 6.36393 6.82812 5.94336ZM16.625 2.34375V15.4062C16.625 15.901 16.4518 16.3216 16.1055 16.668C15.7591 17.0143 15.3385 17.1875 14.8438 17.1875H1.78125C1.28646 17.1875 0.865885 17.0143 0.519531 16.668C0.173177 16.3216 0 15.901 0 15.4062V2.34375C0 1.84896 0.173177 1.42839 0.519531 1.08203C0.865885 0.735677 1.28646 0.5625 1.78125 0.5625H14.8438C15.3385 0.5625 15.7591 0.735677 16.1055 1.08203C16.4518 1.42839 16.625 1.84896 16.625 2.34375ZM5.30664 5.94336C5.30664 6.78451 5.59115 7.50195 6.16016 8.0957C6.75391 8.66471 7.47135 8.94922 8.3125 8.94922C9.15365 8.94922 9.85872 8.66471 10.4277 8.0957C11.0215 7.50195 11.3184 6.79688 11.3184 5.98047C11.3184 5.13932 11.0215 4.42188 10.4277 3.82812C9.85872 3.23438 9.15365 2.9375 8.3125 2.9375C7.47135 2.9375 6.75391 3.23438 6.16016 3.82812C5.59115 4.39714 5.30664 5.10221 5.30664 5.94336ZM11.7637 9.32031C11.6647 9.1224 11.5039 8.9987 11.2812 8.94922C11.0586 8.875 10.7988 8.94922 10.502 9.17188L10.2422 9.35742C10.0195 9.48112 9.77214 9.59245 9.5 9.69141C9.10417 9.79036 8.70833 9.83984 8.3125 9.83984C7.74349 9.83984 7.21159 9.72852 6.7168 9.50586C6.44466 9.4069 6.24674 9.29557 6.12305 9.17188C5.82617 8.94922 5.56641 8.875 5.34375 8.94922C5.12109 8.9987 4.96029 9.1224 4.86133 9.32031C4.71289 9.59245 4.71289 9.82747 4.86133 10.0254C4.96029 10.1986 5.22005 10.4212 5.64062 10.6934C6.13542 11.015 6.84049 11.2253 7.75586 11.3242L5.49219 13.5508C5.29427 13.7734 5.23242 14.0085 5.30664 14.2559C5.4056 14.5033 5.57878 14.6764 5.82617 14.7754C6.09831 14.8743 6.33333 14.8249 6.53125 14.627L8.3125 12.8457L10.0938 14.627C10.2917 14.8249 10.5143 14.8743 10.7617 14.7754C11.0339 14.6764 11.2194 14.5033 11.3184 14.2559C11.4173 14.0085 11.3555 13.7734 11.1328 13.5508L8.90625 11.3242C9.77214 11.2253 10.4648 11.015 10.9844 10.6934C11.4049 10.4212 11.6647 10.1986 11.7637 10.0254C11.9121 9.82747 11.9121 9.59245 11.7637 9.32031Z" fill="#777777"/>
</svg>
