<svg width="19" height="20" viewBox="0 0 19 20" fill="none" xmlns="http://www.w3.org/2000/svg">
<path d="M9.20312 0.671875C7.54557 0.671875 6.01172 1.09245 4.60156 1.93359C3.19141 2.75 2.06576 3.86328 1.22461 5.27344C0.408203 6.68359 0 8.21745 0 9.875C0 11.5326 0.408203 13.0664 1.22461 14.4766C2.06576 15.8867 3.19141 17 4.60156 17.8164C6.01172 18.6576 7.54557 19.0781 9.20312 19.0781C10.8607 19.0781 12.3945 18.6576 13.8047 17.8164C15.2148 17 16.3281 15.8867 17.1445 14.4766C17.9857 13.0664 18.4062 11.5326 18.4062 9.875C18.4062 8.21745 17.9857 6.68359 17.1445 5.27344C16.3281 3.86328 15.2148 2.75 13.8047 1.93359C12.3945 1.09245 10.8607 0.671875 9.20312 0.671875ZM13.7305 6.98047L12.209 14.1055C12.11 14.6003 11.8379 14.724 11.3926 14.4766L9.0918 12.7695L7.97852 13.8457C7.83008 13.9941 7.66927 14.0684 7.49609 14.0684L7.68164 11.7305L11.9492 7.87109C12.0234 7.79688 12.0234 7.7474 11.9492 7.72266C11.875 7.69792 11.776 7.72266 11.6523 7.79688L6.38281 11.0996L4.11914 10.3945C3.84701 10.3203 3.71094 10.209 3.71094 10.0605C3.73568 9.91211 3.90885 9.78841 4.23047 9.68945L13.0996 6.23828C13.2975 6.16406 13.4583 6.20117 13.582 6.34961C13.7305 6.47331 13.7799 6.68359 13.7305 6.98047Z" fill="#777777"/>
</svg>
