<svg width="17" height="18" viewBox="0 0 17 18" fill="none" xmlns="http://www.w3.org/2000/svg">
<path d="M14.8438 0.5625H1.78125C1.28646 0.5625 0.865885 0.735677 0.519531 1.08203C0.173177 1.42839 0 1.84896 0 2.34375V15.4062C0 15.901 0.173177 16.3216 0.519531 16.668C0.865885 17.0143 1.28646 17.1875 1.78125 17.1875H14.8438C15.3385 17.1875 15.7591 17.0143 16.1055 16.668C16.4518 16.3216 16.625 15.901 16.625 15.4062V2.34375C16.625 1.84896 16.4518 1.42839 16.1055 1.08203C15.7591 0.735677 15.3385 0.5625 14.8438 0.5625ZM13.0254 6.46289C13.0254 6.53711 13.0254 6.63607 13.0254 6.75977C13.0254 7.87305 12.7656 8.94922 12.2461 9.98828C11.6771 11.1016 10.8978 11.9798 9.9082 12.623C8.79492 13.3405 7.5332 13.6992 6.12305 13.6992C4.76237 13.6992 3.51302 13.3405 2.375 12.623C2.54818 12.623 2.74609 12.623 2.96875 12.623C4.08203 12.623 5.08398 12.2767 5.97461 11.584C5.45508 11.584 4.98503 11.4355 4.56445 11.1387C4.14388 10.8171 3.85938 10.4089 3.71094 9.91406C4.10677 9.96354 4.47786 9.95117 4.82422 9.87695C4.25521 9.75326 3.78516 9.46875 3.41406 9.02344C3.04297 8.57812 2.85742 8.05859 2.85742 7.46484V7.42773C3.20378 7.62565 3.57487 7.73698 3.9707 7.76172C3.62435 7.53906 3.35221 7.25456 3.1543 6.9082C2.95638 6.53711 2.85742 6.14128 2.85742 5.7207C2.85742 5.27539 2.96875 4.86719 3.19141 4.49609C3.8099 5.23828 4.55208 5.8444 5.41797 6.31445C6.28385 6.75977 7.22396 7.00716 8.23828 7.05664C8.11458 6.51237 8.15169 6.01758 8.34961 5.57227C8.54753 5.10221 8.8444 4.73112 9.24023 4.45898C9.66081 4.18685 10.1185 4.05078 10.6133 4.05078C11.306 4.05078 11.8874 4.31055 12.3574 4.83008C12.9017 4.73112 13.4212 4.5332 13.916 4.23633C13.7181 4.80534 13.3594 5.25065 12.8398 5.57227C13.3099 5.52279 13.7799 5.39909 14.25 5.20117C13.9036 5.69596 13.4954 6.11654 13.0254 6.46289Z" fill="#777777"/>
</svg>
