<svg width="21" height="13" viewBox="0 0 21 13" fill="none" xmlns="http://www.w3.org/2000/svg">
<path d="M20.2246 1.75391C20.373 1.20964 20.1504 0.9375 19.5566 0.9375H17.3672C16.9219 0.9375 16.6126 1.14779 16.4395 1.56836L16.0684 2.31055C15.7715 2.95378 15.4622 3.54753 15.1406 4.0918C14.6706 4.85872 14.2005 5.50195 13.7305 6.02148C13.4831 6.29362 13.2852 6.47917 13.1367 6.57812C12.9883 6.65234 12.8522 6.68945 12.7285 6.68945C12.6296 6.68945 12.543 6.63997 12.4688 6.54102C12.3945 6.44206 12.3574 6.28125 12.3574 6.05859V1.75391C12.3574 1.45703 12.3079 1.24674 12.209 1.12305C12.1348 0.999349 11.9863 0.9375 11.7637 0.9375H8.3125C8.16406 0.9375 8.02799 0.986979 7.9043 1.08594C7.80534 1.1849 7.75586 1.30859 7.75586 1.45703C7.75586 1.58073 7.84245 1.75391 8.01562 1.97656C8.1888 2.17448 8.3125 2.36003 8.38672 2.5332C8.53516 2.83008 8.62174 3.17643 8.64648 3.57227V6.80078C8.64648 7.1224 8.60938 7.34505 8.53516 7.46875C8.48568 7.56771 8.38672 7.61719 8.23828 7.61719C7.99089 7.61719 7.64453 7.34505 7.19922 6.80078C6.75391 6.25651 6.30859 5.55143 5.86328 4.68555C5.36849 3.74544 4.94792 2.7806 4.60156 1.79102C4.5026 1.4694 4.37891 1.24674 4.23047 1.12305C4.10677 0.999349 3.90885 0.9375 3.63672 0.9375H1.44727C0.952474 0.9375 0.705078 1.14779 0.705078 1.56836C0.705078 1.81576 0.791667 2.2487 0.964844 2.86719C1.23698 3.63411 1.5957 4.46289 2.04102 5.35352C2.61003 6.51628 3.3151 7.66667 4.15625 8.80469C5.04688 10.0911 6.08594 11.0807 7.27344 11.7734C8.46094 12.4661 9.63607 12.8125 10.7988 12.8125C11.4668 12.8125 11.9121 12.7383 12.1348 12.5898C12.3079 12.4661 12.3822 12.2559 12.3574 11.959V10.9941C12.3574 10.4004 12.3698 10.0169 12.3945 9.84375C12.3945 9.59635 12.4316 9.43555 12.5059 9.36133C12.6048 9.28711 12.7533 9.25 12.9512 9.25C13.4212 9.25 14.151 9.72005 15.1406 10.6602C15.4375 10.957 15.7715 11.3281 16.1426 11.7734C16.5384 12.194 16.8105 12.4538 16.959 12.5527C17.1816 12.7259 17.429 12.8125 17.7012 12.8125H19.8906C20.1875 12.8125 20.3978 12.7383 20.5215 12.5898C20.6699 12.4167 20.707 12.1816 20.6328 11.8848C20.4102 11.1921 19.4082 9.93034 17.627 8.09961L17.293 7.72852C17.1445 7.55534 17.0703 7.4069 17.0703 7.2832C17.0703 7.15951 17.1445 6.98633 17.293 6.76367C17.3177 6.73893 17.5527 6.40495 17.998 5.76172C18.5176 4.94531 18.9629 4.22786 19.334 3.60938C19.8535 2.74349 20.1504 2.125 20.2246 1.75391Z" fill="#777777"/>
</svg>
