<svg width="100" height="60" viewBox="0 0 100 60" fill="none" xmlns="http://www.w3.org/2000/svg">
<path d="M25.178 12.3827L13.968 19.0081V52.7749C13.968 53.506 13.3452 54.1457 12.6335 54.1457C12.3666 54.1457 12.0997 54.1457 11.8328 54.1457C11.6548 54.1457 11.4769 54.1457 11.2989 54.1457V0L0 6.67111C0 9.41267 0 42.3113 0 42.3113C0.0889681 46.2866 2.04627 49.7592 4.98221 51.9067L6.98399 53.0947L11.2989 55.6535L13.968 57.2528L16.4146 58.7149L16.9929 59.0348C17.7936 59.446 18.6833 59.6745 19.573 59.6745C22.4644 59.6745 24.8666 57.4355 25.2224 54.5569V53.1861C25.2224 31.9391 25.178 12.3827 25.178 12.3827Z" fill="white"/>
<path d="M45.9969 33.1269H44.1286L43.7283 31.5277H41.0592L40.6144 33.1269H38.7905L41.1927 24.9479H43.5948L45.9969 33.1269ZM41.4596 29.9741H43.2834L42.3937 26.5929L41.4596 29.9741Z" fill="white"/>
<path d="M46.7977 24.9479H48.577V33.1269H46.7977V24.9479ZM48.7994 28.9689L50.9347 24.9479H52.9365L50.7123 28.9689L53.1144 33.1269H51.1126L48.7994 28.9689Z" fill="white"/>
<path d="M53.9601 33.1269V24.9479H58.9868V26.5929H55.7394V28.3292H58.7199V29.9284H55.7394V33.1269H53.9601Z" fill="white"/>
<path d="M66.1922 33.1269H64.3239L63.9236 31.5277H61.2545L60.8542 33.1269H58.9858L61.388 24.9479H63.7901L66.1922 33.1269ZM61.6549 29.9741H63.4787L62.589 26.5929L61.6549 29.9741Z" fill="white"/>
<path d="M45.33 38.0165V43.7738C45.33 45.0075 44.6183 46.2869 42.3496 46.2869C40.1254 46.2869 39.3691 45.0075 39.3691 43.7738V38.0165H41.1485V43.591C41.1485 44.2764 41.4599 44.6419 42.3496 44.6419C43.2393 44.6419 43.5506 44.2764 43.5506 43.591V38.0165H45.33Z" fill="white"/>
<path d="M48.2204 40.8038V46.1498H46.4855V38.0165H48.7097L51.2898 43.6367V38.0165H53.0247V46.1498H50.8005L48.2204 40.8038Z" fill="white"/>
<path d="M54.2263 46.1498V38.0165H56.0056V46.1498H54.2263Z" fill="white"/>
<path d="M61.5217 46.1498H58.9862L56.762 38.0165H58.5858L60.2762 44.5049L61.9221 38.0165H63.7904L61.5217 46.1498Z" fill="white"/>
<path d="M64.5026 46.1498V38.0165H69.4848V39.6157H66.282V41.1236H69.2179V42.7685H66.282V44.5049H69.4848V46.1498H64.5026Z" fill="white"/>
<path d="M73.3529 43.6367H72.2853V46.1498H70.5059V38.0165H73.7977C75.755 38.0165 76.4668 38.7933 76.4668 40.3011V41.3064C76.4668 42.3573 76.1109 43.0427 75.3102 43.3625L77.223 46.1498H75.0878L73.3529 43.6367ZM74.6874 40.4839C74.6874 39.8899 74.465 39.6157 73.7088 39.6157H72.2853V42.0375H73.7088C74.465 42.0375 74.6874 41.7633 74.6874 41.1236V40.4839Z" fill="white"/>
<path d="M80.3816 46.2859C79.4475 46.2859 78.5133 46.0574 77.8016 45.7376L78.113 44.3211C78.8247 44.5496 79.5809 44.7323 80.3816 44.7323C81.3158 44.7323 81.4937 44.5496 81.4937 43.8642C81.4937 43.1331 81.4493 43.0417 80.1592 42.7219C78.2464 42.3106 77.9795 41.8994 77.9795 40.1631C77.9795 38.5181 78.5133 37.8784 80.693 37.8784C81.4048 37.8784 82.2055 37.9698 83.0952 38.1526L82.9172 39.7062C82.0276 39.5234 81.4493 39.4777 80.7375 39.4777C79.9368 39.4777 79.7589 39.6148 79.7589 40.2088C79.7589 40.9855 79.8034 40.9855 81.0489 41.3054C83.1841 41.8537 83.2731 42.2649 83.2731 43.8642C83.2731 45.4634 82.7838 46.2859 80.3816 46.2859Z" fill="white"/>
<path d="M84.2525 46.1498V38.0165H86.0319V46.1498H84.2525Z" fill="white"/>
<path d="M90.7466 39.6157V46.1498H88.9672V39.6157H86.832V38.0165H92.8818V39.6157H90.7466Z" fill="white"/>
<path d="M97.5534 43.8195V46.1498H95.774V43.8195L93.2829 38.0165H95.1512L96.6637 41.7633L98.1317 38.0165H100L97.5534 43.8195Z" fill="white"/>
</svg>
