<svg width="85" height="52" viewBox="0 0 85 52" fill="none" xmlns="http://www.w3.org/2000/svg">
<path d="M21.4013 11.2829L11.8728 16.9145V45.6163C11.8728 46.2377 11.3434 46.7814 10.7385 46.7814C10.5116 46.7814 10.2847 46.7814 10.0578 46.7814C9.9066 46.7814 9.75535 46.7814 9.60411 46.7814V0.757568L0 6.42802C0 8.75834 0 36.7222 0 36.7222C0.0756229 40.1012 1.73933 43.0529 4.23488 44.8783L5.9364 45.8881L9.60411 48.0631L11.8728 49.4224L13.9524 50.6653L14.444 50.9372C15.1246 51.2867 15.8808 51.4809 16.637 51.4809C19.0948 51.4809 21.1366 49.5778 21.4391 47.131V45.9658C21.4391 27.9058 21.4013 11.2829 21.4013 11.2829Z" fill="#D60D13"/>
<path d="M39.0974 28.9155H37.5094L37.1691 27.5561H34.9004L34.5223 28.9155H32.972L35.0138 21.9634H37.0556L39.0974 28.9155ZM35.2407 26.2356H36.7909L36.0347 23.3616L35.2407 26.2356Z" fill="#D60D13"/>
<path d="M39.7781 21.9634H41.2905V28.9155H39.7781V21.9634ZM41.4796 25.3812L43.2945 21.9634H44.9961L43.1055 25.3812L45.1473 28.9155H43.4458L41.4796 25.3812Z" fill="#D60D13"/>
<path d="M45.8661 28.9155V21.9634H50.1388V23.3616H47.3786V24.8374H49.912V26.1968H47.3786V28.9155H45.8661Z" fill="#D60D13"/>
<path d="M56.2634 28.9155H54.6754L54.3351 27.5561H52.0664L51.7261 28.9155H50.138L52.1798 21.9634H54.2216L56.2634 28.9155ZM52.4067 26.2356H53.957L53.2007 23.3616L52.4067 26.2356Z" fill="#D60D13"/>
<path d="M38.5305 33.0717V37.9653C38.5305 39.014 37.9256 40.1015 35.9972 40.1015C34.1066 40.1015 33.4638 39.014 33.4638 37.9653V33.0717H34.9763V37.81C34.9763 38.3926 35.2409 38.7033 35.9972 38.7033C36.7534 38.7033 37.0181 38.3926 37.0181 37.81V33.0717H38.5305Z" fill="#D60D13"/>
<path d="M40.9874 35.4408V39.9849H39.5128V33.0717H41.4033L43.5964 37.8488V33.0717H45.071V39.9849H43.1805L40.9874 35.4408Z" fill="#D60D13"/>
<path d="M46.0923 39.9849V33.0717H47.6048V39.9849H46.0923Z" fill="#D60D13"/>
<path d="M52.2935 39.9849H50.1383L48.2477 33.0717H49.7979L51.2348 38.5867L52.6338 33.0717H54.2219L52.2935 39.9849Z" fill="#D60D13"/>
<path d="M54.8273 39.9849V33.0717H59.0621V34.431H56.3397V35.7127H58.8353V37.1109H56.3397V38.5867H59.0621V39.9849H54.8273Z" fill="#D60D13"/>
<path d="M62.35 37.8488H61.4425V39.9849H59.9301V33.0717H62.7281C64.3918 33.0717 64.9968 33.7319 64.9968 35.0136V35.868C64.9968 36.7613 64.6943 37.3439 64.0137 37.6158L65.6396 39.9849H63.8246L62.35 37.8488ZM63.4843 35.1689C63.4843 34.664 63.2953 34.431 62.6525 34.431H61.4425V36.4895H62.6525C63.2953 36.4895 63.4843 36.2564 63.4843 35.7127V35.1689Z" fill="#D60D13"/>
<path d="M68.3244 40.1007C67.5304 40.1007 66.7363 39.9065 66.1313 39.6346L66.396 38.4306C67.001 38.6248 67.6438 38.7801 68.3244 38.7801C69.1185 38.7801 69.2697 38.6248 69.2697 38.0422C69.2697 37.4208 69.2319 37.3431 68.1354 37.0712C66.5095 36.7217 66.2826 36.3721 66.2826 34.8963C66.2826 33.4981 66.7363 32.9543 68.5891 32.9543C69.1941 32.9543 69.8747 33.032 70.6309 33.1874L70.4797 34.5079C69.7234 34.3525 69.2319 34.3137 68.6269 34.3137C67.9463 34.3137 67.7951 34.4302 67.7951 34.9351C67.7951 35.5954 67.8329 35.5954 68.8916 35.8672C70.7065 36.3333 70.7822 36.6829 70.7822 38.0422C70.7822 39.4016 70.3662 40.1007 68.3244 40.1007Z" fill="#D60D13"/>
<path d="M71.6147 39.9849V33.0717H73.1271V39.9849H71.6147Z" fill="#D60D13"/>
<path d="M77.1347 34.431V39.9849H75.6222V34.431H73.8073V33.0717H78.9496V34.431H77.1347Z" fill="#D60D13"/>
<path d="M82.9204 38.0042V39.9849H81.408V38.0042L79.2905 33.0717H80.8786L82.1642 36.2564L83.412 33.0717H85.0001L82.9204 38.0042Z" fill="#D60D13"/>
</svg>
